<svg xmlns="http://www.w3.org/2000/svg" viewBox="0 0 100 100">
  <defs>
    <linearGradient id="grad" x1="0%" y1="0%" x2="100%" y2="100%">
      <stop offset="0%" style="stop-color:#3b82f6;stop-opacity:1" />
      <stop offset="100%" style="stop-color:#2563eb;stop-opacity:1" />
    </linearGradient>
  </defs>
  <rect width="100" height="100" rx="20" fill="url(#grad)"/>
  <path d="M70 25v42c0 5.5-4.5 10-10 10s-10-4.5-10-10 4.5-10 10-10c2 0 3.8.6 5.5 1.5V35L40 42v33c0 5.5-4.5 10-10 10s-10-4.5-10-10 4.5-10 10-10c2 0 3.8.6 5.5 1.5V37c0-1.4.9-2.6 2.2-3l27.5-7.5c1.8-.5 3.8.8 3.8 2.5z" fill="white"/>
</svg>
